<?xml version="1.0" encoding="UTF-8" standalone="no"?>
<!-- Created with Inkscape (http://www.inkscape.org/) -->

<svg
   xmlns:dc="http://purl.org/dc/elements/1.1/"
   xmlns:cc="http://creativecommons.org/ns#"
   xmlns:rdf="http://www.w3.org/1999/02/22-rdf-syntax-ns#"
   xmlns:svg="http://www.w3.org/2000/svg"
   xmlns="http://www.w3.org/2000/svg"
   xmlns:sodipodi="http://sodipodi.sourceforge.net/DTD/sodipodi-0.dtd"
   xmlns:inkscape="http://www.inkscape.org/namespaces/inkscape"
   width="1052.3622"
   height="744.09448"
   id="svg2"
   version="1.1"
   inkscape:version="0.48.4 r"
   sodipodi:docname="bad1.svg">
  <defs
     id="defs4" />
  <sodipodi:namedview
     id="base"
     pagecolor="#ffffff"
     bordercolor="#666666"
     borderopacity="1.0"
     inkscape:pageopacity="0.0"
     inkscape:pageshadow="2"
     inkscape:zoom="0.98994949"
     inkscape:cx="369.1679"
     inkscape:cy="285.69289"
     inkscape:document-units="mm"
     inkscape:current-layer="layer1"
     showgrid="true"
     units="mm"
     objecttolerance="10000"
     guidetolerance="10000"
     inkscape:window-width="1920"
     inkscape:window-height="1017"
     inkscape:window-x="1912"
     inkscape:window-y="-8"
     inkscape:window-maximized="1">
    <inkscape:grid
       type="xygrid"
       id="grid2987"
       empspacing="8"
       visible="true"
       enabled="true"
       snapvisiblegridlinesonly="true"
       units="mm"
       spacingx="1.25mm"
       spacingy="1.25mm"
       dotted="false" />
  </sodipodi:namedview>
  <metadata
     id="metadata7">
    <rdf:RDF>
      <cc:Work
         rdf:about="">
        <dc:format>image/svg+xml</dc:format>
        <dc:type
           rdf:resource="http://purl.org/dc/dcmitype/StillImage" />
        <dc:title />
        <dc:creator>
          <cc:Agent>
            <dc:title>Mike Chaliy(mike@chaliy.name)</dc:title>
          </cc:Agent>
        </dc:creator>
        <dc:rights>
          <cc:Agent>
            <dc:title />
          </cc:Agent>
        </dc:rights>
        <dc:source>http://chaliy.name</dc:source>
        <dc:subject>
          <rdf:Bag>
            <rdf:li>Paper</rdf:li>
          </rdf:Bag>
        </dc:subject>
        <cc:license
           rdf:resource="http://creativecommons.org/licenses/by-nc/3.0/" />
      </cc:Work>
      <cc:License
         rdf:about="http://creativecommons.org/licenses/by-nc/3.0/">
        <cc:permits
           rdf:resource="http://creativecommons.org/ns#Reproduction" />
        <cc:permits
           rdf:resource="http://creativecommons.org/ns#Distribution" />
        <cc:requires
           rdf:resource="http://creativecommons.org/ns#Notice" />
        <cc:requires
           rdf:resource="http://creativecommons.org/ns#Attribution" />
        <cc:prohibits
           rdf:resource="http://creativecommons.org/ns#CommercialUse" />
        <cc:permits
           rdf:resource="http://creativecommons.org/ns#DerivativeWorks" />
      </cc:License>
    </rdf:RDF>
  </metadata>
  <g
     inkscape:label="Layer 1"
     inkscape:groupmode="layer"
     id="layer1"
     transform="translate(0,-308.26776)">
    <path
       style="fill:none;stroke:#666666;stroke-width:0.88582677;stroke-linecap:butt;stroke-linejoin:miter;stroke-miterlimit:4;stroke-dasharray:none"
       d="m 177.15625,768.90605 c -26.70404,0 -49.95082,7.3729 -62.03125,18.28125 -2.82576,-0.36284 -5.76034,-0.5625 -8.8125,-0.5625 -19.569145,0 -35.4375,7.93418 -35.4375,17.71875 l 0,70.84375 8.84375,0 0,-35.40625 c 0,-0.004 -0.0037,-0.0312 0,-0.0312 l 4.4375,0 c 0.0037,0 0,0.0275 0,0.0312 l 0,35.40625 186.03125,0 0,-35.40625 c 0,-0.004 -0.004,-0.0312 0,-0.0312 l 4.40625,0 c 0.004,0 0,0.0275 0,0.0312 l 0,35.40625 8.875,0 0,-70.84375 c 0,-9.78457 -15.86836,-17.71875 -35.4375,-17.71875 -3.05768,0 -6.01337,0.19839 -8.84375,0.5625 -12.08127,-10.90688 -35.32939,-18.28125 -62.03125,-18.28125 z m -75.28125,93 35.40625,0 c 0.004,0 0.0312,-0.004 0.0312,0 l 0,4.4375 c 0,0.004 -0.0275,0 -0.0312,0 l -35.40625,0 0,-4.4375 z m 115.15625,0 35.4375,0 0,4.4375 -35.4375,0 0,-4.4375 z"
       id="rect3762"
       inkscape:connector-curvature="0" />
    <path
       style="fill:none;stroke:#666666;stroke-width:0.88582677;stroke-linecap:butt;stroke-linejoin:miter;stroke-miterlimit:4;stroke-dasharray:none"
       d="m 354.34375,804.35265 0,70.84375 283.4375,0 0,-70.84375 -8.84375,0 0,35.40625 -4.4375,0 0,-35.40625 -256.875,0 0,35.40625 -4.4375,0 0,-35.40625 -8.84375,0 z m 48.71875,57.5625 35.40625,0 0,4.40625 c 0,0.004 0.004,0.0312 0,0.0312 l -35.40625,0 c -0.004,0 0,-0.0276 0,-0.0312 l 0,-4.40625 z m 150.59375,0 35.40625,0 0,4.40625 c 0,0.004 0.004,0.0312 0,0.0312 l -35.40625,0 c -0.004,0 0,-0.0276 0,-0.0312 l 0,-4.40625 z"
       id="rect3764"
       inkscape:connector-curvature="0" />
    <path
       style="fill:none;stroke:#666666;stroke-width:0.89652008;stroke-linecap:butt;stroke-linejoin:miter;stroke-miterlimit:4;stroke-dasharray:none"
       d="m 403.0625,569.5714 c -0.004,0 0,0.0276 0,0.0312 l 0,4.4375 0,4.40625 -35.4375,0 c -0.004,0 0,0.0276 0,0.0312 l 0,17.6875 -4.4375,0 -4.40625,0 c -0.004,0 -0.0312,-0.004 -0.0312,0 l 0,35.4375 c 0,0.004 0.0276,0 0.0312,0 l 4.40625,0 4.4375,0 0,79.71875 -4.4375,0 -4.40625,0 c -0.004,0 -0.0312,-0.004 -0.0312,0 l 0,35.4375 c 0,0.004 0.0276,0 0.0312,0 l 4.40625,0 4.4375,0 0,17.71875 35.4375,0 0,4.40625 0,0.0312 0,4.40625 35.40625,0 0,-4.40625 c 0,-0.004 0.004,-0.0312 0,-0.0312 l 0,-4.40625 115.1875,0 0,4.4375 0,4.40625 35.40625,0 0,-4.40625 c 0,-0.004 0.004,-0.0312 0,-0.0312 l 0,-4.40625 35.4375,0 0,-17.71875 4.4375,0 4.4375,0 0,-35.4375 -4.4375,0 -4.4375,0 0,-79.71875 4.4375,0 4.4375,0 0,-35.4375 -4.4375,0 -4.4375,0 0,-17.6875 c 0,-0.004 0.004,-0.0312 0,-0.0312 l -35.4375,0 0,-4.40625 0,-4.4375 c 0,-0.004 0.004,-0.0312 0,-0.0312 l -35.40625,0 c -0.004,0 0,0.0276 0,0.0312 l 0,4.4375 0,4.40625 -115.1875,0 0,-4.40625 0,-4.4375 c 0,-0.004 0.004,-0.0312 0,-0.0312 l -35.40625,0 z"
       id="rect3782"
       inkscape:connector-curvature="0" />
    <path
       id="path3884"
       d="m 637.78125,946.06254 0,-70.84375 -283.4375,0 0,70.84375 8.84375,0 0,-35.40625 4.4375,0 0,35.40625 256.875,0 0,-35.40625 4.4375,0 0,35.40625 8.84375,0 z m -48.71875,-57.5625 -35.40625,0 0,-4.40625 c 0,-0.004 -0.004,-0.0312 0,-0.0312 l 35.40625,0 c 0.004,0 0,0.0276 0,0.0312 l 0,4.40625 z m -150.59375,0 -35.40625,0 0,-4.40625 c 0,-0.004 -0.004,-0.0312 0,-0.0312 l 35.40625,0 c 0.004,0 0,0.0276 0,0.0312 l 0,4.40625 z"
       style="fill:none;stroke:#666666;stroke-width:0.88582677;stroke-linecap:butt;stroke-linejoin:miter;stroke-miterlimit:4;stroke-dasharray:none"
       inkscape:connector-curvature="0" />
    <path
       inkscape:connector-curvature="0"
       id="path3886"
       d="m 177.1875,981.48653 c 26.70404,0 49.95082,-7.3729 62.03125,-18.28127 2.82576,0.36284 5.76034,0.5625 8.8125,0.5625 19.56914,0 35.4375,-7.93418 35.4375,-17.71875 l 0,-70.84375 -8.84375,0 0,35.40625 c 0,0.004 0.004,0.0312 0,0.0312 l -4.4375,0 c -0.004,0 0,-0.0275 0,-0.0312 l 0,-35.40625 -186.03125,0 0,35.40625 c 0,0.004 0.004,0.0312 0,0.0312 l -4.40625,0 c -0.004,0 0,-0.0275 0,-0.0312 l 0,-35.40625 -8.875,0 0,70.84375 c 0,9.78457 15.86836,17.71875 35.4375,17.71875 3.05768,0 6.01337,-0.19839 8.84375,-0.5625 12.08127,10.90687 35.32939,18.28127 62.03125,18.28127 z m 75.28125,-93.00002 -35.40625,0 c -0.004,0 -0.0312,0.004 -0.0312,0 l 0,-4.4375 c 0,-0.004 0.0275,0 0.0312,0 l 35.40625,0 0,4.4375 z m -115.15625,0 -35.4375,0 0,-4.4375 35.4375,0 0,4.4375 z"
       style="fill:none;stroke:#666666;stroke-width:0.88582677;stroke-linecap:butt;stroke-linejoin:miter;stroke-miterlimit:4;stroke-dasharray:none" />
  </g>
</svg>
